<svg width="127" height="66" viewBox="0 0 127 66" fill="none" xmlns="http://www.w3.org/2000/svg">
<g filter="url(#filter0_d_23_11)">
<rect width="8.77065" height="37.787" transform="matrix(0.528187 0.849128 -0.819153 0.573575 34.9534 0)" fill="#FFA500"/>
<path d="M45.8117 43.1836C45.8117 45.3841 45.5383 47.3893 44.9914 49.1992C44.4445 50.9961 43.6112 52.5456 42.4914 53.8477C41.3846 55.1497 39.9784 56.1523 38.2727 56.8555C36.5669 57.5456 34.5487 57.8906 32.218 57.8906C29.8872 57.8906 27.869 57.5456 26.1633 56.8555C24.4576 56.1523 23.0448 55.1497 21.925 53.8477C20.8182 52.5456 19.9914 50.9896 19.4445 49.1797C18.8977 47.3698 18.6242 45.3581 18.6242 43.1445C18.6242 40.1888 19.106 37.6172 20.0695 35.4297C21.0461 33.2292 22.5435 31.5234 24.5617 30.3125C26.5799 29.1016 29.1451 28.4961 32.257 28.4961C35.356 28.4961 37.9016 29.1016 39.8937 30.3125C41.899 31.5234 43.3833 33.2292 44.3469 35.4297C45.3234 37.6302 45.8117 40.2148 45.8117 43.1836ZM24.9719 43.1836C24.9719 45.1758 25.2193 46.8945 25.7141 48.3398C26.2219 49.7721 27.0096 50.8789 28.0773 51.6602C29.1451 52.4284 30.5253 52.8125 32.218 52.8125C33.9367 52.8125 35.3299 52.4284 36.3977 51.6602C37.4654 50.8789 38.2401 49.7721 38.7219 48.3398C39.2167 46.8945 39.4641 45.1758 39.4641 43.1836C39.4641 40.1888 38.9042 37.832 37.7844 36.1133C36.6646 34.3945 34.8221 33.5352 32.257 33.5352C30.5513 33.5352 29.1581 33.9258 28.0773 34.707C27.0096 35.4753 26.2219 36.582 25.7141 38.0273C25.2193 39.4596 24.9719 41.1784 24.9719 43.1836ZM58.175 57.8906C55.7401 57.8906 53.7544 56.9401 52.218 55.0391C50.6945 53.125 49.9328 50.319 49.9328 46.6211C49.9328 42.8841 50.7076 40.0586 52.257 38.1445C53.8065 36.2174 55.8312 35.2539 58.3312 35.2539C59.3729 35.2539 60.2909 35.3971 61.0852 35.6836C61.8794 35.9701 62.563 36.3542 63.1359 36.8359C63.7219 37.3177 64.2167 37.8581 64.6203 38.457H64.8156C64.7375 38.0404 64.6398 37.4284 64.5227 36.6211C64.4185 35.8008 64.3664 34.9609 64.3664 34.1016V27.1094H70.343V57.5H65.7727L64.6203 54.668H64.3664C63.9888 55.2669 63.5135 55.8138 62.9406 56.3086C62.3807 56.7904 61.7102 57.1745 60.9289 57.4609C60.1477 57.7474 59.2297 57.8906 58.175 57.8906ZM60.2648 53.1445C61.8924 53.1445 63.0383 52.6628 63.7023 51.6992C64.3794 50.7227 64.7375 49.2578 64.7766 47.3047V46.6602C64.7766 44.5378 64.451 42.9167 63.8 41.7969C63.149 40.6641 61.938 40.0977 60.1672 40.0977C58.8521 40.0977 57.8234 40.6641 57.0812 41.7969C56.3391 42.9297 55.968 44.5638 55.968 46.6992C55.968 48.8346 56.3391 50.4427 57.0812 51.5234C57.8365 52.6042 58.8977 53.1445 60.2648 53.1445ZM96.4172 46.543C96.4172 48.3659 96.1698 49.9805 95.675 51.3867C95.1932 52.793 94.4836 53.9844 93.5461 54.9609C92.6216 55.9245 91.5018 56.6536 90.1867 57.1484C88.8846 57.6432 87.4133 57.8906 85.7727 57.8906C84.2362 57.8906 82.8234 57.6432 81.5344 57.1484C80.2583 56.6536 79.1451 55.9245 78.1945 54.9609C77.257 53.9844 76.5279 52.793 76.007 51.3867C75.4992 49.9805 75.2453 48.3659 75.2453 46.543C75.2453 44.1211 75.675 42.0703 76.5344 40.3906C77.3937 38.7109 78.6177 37.4349 80.2062 36.5625C81.7948 35.6901 83.6893 35.2539 85.8898 35.2539C87.9341 35.2539 89.744 35.6901 91.3195 36.5625C92.9081 37.4349 94.1516 38.7109 95.05 40.3906C95.9615 42.0703 96.4172 44.1211 96.4172 46.543ZM81.3195 46.543C81.3195 47.9753 81.4758 49.1797 81.7883 50.1562C82.1008 51.1328 82.5891 51.8685 83.2531 52.3633C83.9172 52.8581 84.7831 53.1055 85.8508 53.1055C86.9055 53.1055 87.7583 52.8581 88.4094 52.3633C89.0734 51.8685 89.5552 51.1328 89.8547 50.1562C90.1672 49.1797 90.3234 47.9753 90.3234 46.543C90.3234 45.0977 90.1672 43.8997 89.8547 42.9492C89.5552 41.9857 89.0734 41.263 88.4094 40.7812C87.7453 40.2995 86.8794 40.0586 85.8117 40.0586C84.2362 40.0586 83.0904 40.599 82.3742 41.6797C81.6711 42.7604 81.3195 44.3815 81.3195 46.543ZM116.573 51.0156C116.573 52.5 116.222 53.7565 115.519 54.7852C114.829 55.8008 113.793 56.5755 112.413 57.1094C111.033 57.6302 109.314 57.8906 107.257 57.8906C105.734 57.8906 104.425 57.793 103.331 57.5977C102.251 57.4023 101.157 57.0768 100.05 56.6211V51.6992C101.235 52.2331 102.504 52.6758 103.859 53.0273C105.226 53.3659 106.424 53.5352 107.452 53.5352C108.611 53.5352 109.438 53.3659 109.933 53.0273C110.441 52.6758 110.695 52.2201 110.695 51.6602C110.695 51.2956 110.59 50.9701 110.382 50.6836C110.187 50.3841 109.757 50.0521 109.093 49.6875C108.429 49.3099 107.387 48.8216 105.968 48.2227C104.601 47.6497 103.474 47.0703 102.589 46.4844C101.717 45.8984 101.066 45.2083 100.636 44.4141C100.219 43.6068 100.011 42.5846 100.011 41.3477C100.011 39.3294 100.792 37.8125 102.355 36.7969C103.93 35.7682 106.033 35.2539 108.663 35.2539C110.017 35.2539 111.307 35.3906 112.53 35.6641C113.767 35.9375 115.037 36.3737 116.339 36.9727L114.542 41.2695C113.461 40.8008 112.439 40.4167 111.476 40.1172C110.525 39.8177 109.555 39.668 108.566 39.668C107.693 39.668 107.036 39.7852 106.593 40.0195C106.15 40.2539 105.929 40.612 105.929 41.0938C105.929 41.4453 106.04 41.7578 106.261 42.0312C106.495 42.3047 106.938 42.6107 107.589 42.9492C108.253 43.2747 109.223 43.6979 110.499 44.2188C111.736 44.7266 112.81 45.2604 113.722 45.8203C114.633 46.3672 115.336 47.0508 115.831 47.8711C116.326 48.6784 116.573 49.7266 116.573 51.0156Z" fill="white"/>
<path d="M4 21.75H12.4103V58H4V21.75Z" fill="#FFA500"/>
<path fill-rule="evenodd" clip-rule="evenodd" d="M34.985 7.62939e-06L30.2821 7.39757L54.8789 25H69.9189L34.985 7.62939e-06Z" fill="#FFA500"/>
</g>
<defs>
<filter id="filter0_d_23_11" x="0" y="0" width="131" height="66" filterUnits="userSpaceOnUse" color-interpolation-filters="sRGB">
<feFlood flood-opacity="0" result="BackgroundImageFix"/>
<feColorMatrix in="SourceAlpha" type="matrix" values="0 0 0 0 0 0 0 0 0 0 0 0 0 0 0 0 0 0 127 0" result="hardAlpha"/>
<feOffset dy="4"/>
<feGaussianBlur stdDeviation="2"/>
<feComposite in2="hardAlpha" operator="out"/>
<feColorMatrix type="matrix" values="0 0 0 0 0 0 0 0 0 0 0 0 0 0 0 0 0 0 0.25 0"/>
<feBlend mode="normal" in2="BackgroundImageFix" result="effect1_dropShadow_23_11"/>
<feBlend mode="normal" in="SourceGraphic" in2="effect1_dropShadow_23_11" result="shape"/>
</filter>
</defs>
</svg>
