<svg width="40" height="40" viewBox="0 0 40 40" fill="none" xmlns="http://www.w3.org/2000/svg">
<path fill-rule="evenodd" clip-rule="evenodd" d="M40 20C40 31.0457 31.0457 40 20 40C8.9543 40 0 31.0457 0 20C0 8.9543 8.9543 0 20 0C31.0457 0 40 8.9543 40 20ZM6.31281 19.7908C5.58775 18.9575 5.67552 17.6942 6.50882 16.9692L7.26324 16.3128C8.09654 15.5878 9.35982 15.6755 10.0849 16.5088L17.6754 25.2328L29.1339 11.9872C29.8566 11.1518 31.1196 11.0604 31.955 11.7831L32.7112 12.4373C33.5466 13.16 33.638 14.423 32.9153 15.2584L19.3085 30.9874C18.5858 31.8228 17.3228 31.9142 16.4874 31.1915L15.9857 30.7575C15.8087 30.6518 15.6451 30.5166 15.5024 30.3526L6.31281 19.7908Z" fill="#FFA500"/>
</svg>
